<svg viewBox="0 0 512 512" xmlns="http://www.w3.org/2000/svg">
  <rect width="512" height="512" fill="white"/>
  <g fill="black">
    <path d="M 476 226 L 476 116 A 80 80 0 0 0 396 36 L 116 36 A 80 80 0 0 0 36 116 L 36 396 A 80 80 0 0 0 116 476 L 396 476 A 80 80 0 0 0 476 396 L 476 286 L 436 286 L 436 396 A 40 40 0 0 1 396 436 L 116 436 A 40 40 0 0 1 76 396 L 76 116 A 40 40 0 0 1 116 76 L 396 76 A 40 40 0 0 1 436 116 L 436 226 L 476 226 Z"/>
    <path d="M 396 226 L 396 166 A 50 50 0 0 0 346 116 L 166 116 A 50 50 0 0 0 116 166 L 116 346 A 50 50 0 0 0 166 396 L 346 396 A 50 50 0 0 0 396 346 L 396 286 L 356 286 L 356 346 A 10 10 0 0 1 346 356 L 166 356 A 10 10 0 0 1 156 346 L 156 166 A 10 10 0 0 1 166 156 L 346 156 A 10 10 0 0 1 356 166 L 356 226 L 396 226 Z"/>
  </g>
</svg>